<svg width="950" height="71" viewBox="0 0 950 71" fill="none" xmlns="http://www.w3.org/2000/svg">
<path d="M884.719 61.5063V11.1459H913.218V18.5761H894.219V30.9598H910.74V38.3901H894.219V54.4889H913.218V61.9191H884.719V61.5063ZM856.633 61.9191C854.155 61.9191 851.263 61.5064 848.372 60.6808C845.481 59.8552 843.003 58.6168 840.525 56.9657L842.177 49.5354C844.655 51.1866 847.133 52.425 849.611 53.2505C852.089 54.0761 854.568 54.4889 857.046 54.4889C859.524 54.4889 860.763 54.0761 862.002 52.8378C863.241 51.5994 863.654 49.9482 863.654 47.8843C863.654 45.8203 862.828 44.5819 861.589 43.3436C860.35 42.1052 857.872 41.2796 854.568 40.0413C849.611 38.3901 846.307 36.7389 843.829 34.675C841.351 32.611 840.112 29.3087 840.112 25.5936C840.112 21.8785 841.351 17.3378 844.242 14.861C847.133 11.9715 850.85 10.7331 855.807 10.7331C860.763 10.7331 861.176 11.1459 864.067 11.9715C866.546 12.7971 869.024 14.0354 870.676 15.2738L869.437 22.2912C867.372 20.6401 864.894 19.8145 862.828 18.9889C860.763 18.1634 858.285 17.7506 856.633 17.7506C854.981 17.7506 852.916 18.1634 851.676 19.4017C850.437 20.6401 850.024 21.8785 850.024 23.9424C850.024 26.0064 850.437 27.2447 851.676 28.4831C852.916 29.3087 855.394 30.5471 859.111 31.7854C864.067 33.4366 867.785 35.5006 869.85 37.5645C872.328 39.6285 873.154 42.9308 873.154 46.6459C873.154 50.361 871.502 54.9017 868.611 57.7912C865.719 60.6808 861.589 61.9191 855.807 61.9191H856.633ZM805.004 61.5063H795.504V11.1459H814.09C818.634 11.1459 821.938 12.3843 824.416 14.4482C826.894 16.5122 828.134 20.2273 828.134 24.3552V28.4831C828.134 32.1982 827.308 35.0877 826.068 37.1517C824.829 39.2157 822.764 40.8668 819.873 41.6924L829.373 61.0936H818.221L809.134 42.518H805.417V61.0936L805.004 61.5063ZM805.004 35.5006H812.851C814.504 35.5006 815.743 35.0878 816.569 33.8494C817.395 32.611 817.808 30.9598 817.808 28.4831V24.768C817.808 22.2912 817.395 20.6401 816.569 19.8145C815.743 18.9889 814.504 18.5761 812.851 18.5761H805.004V35.9133V35.5006ZM755.44 61.5063V11.1459H783.939V18.5761H764.94V30.9598H781.461V38.3901H764.94V54.4889H783.939V61.9191H755.44V61.5063ZM736.441 61.5063H723.637L712.485 11.1459H722.398L730.245 52.425L738.506 11.1459H747.592L736.441 61.5063V61.5063ZM698.855 61.5063L696.376 48.2971H685.225L682.746 61.5063H673.66L684.812 11.1459H697.616L708.767 61.5063H698.855ZM694.724 41.2796L690.594 19.8145L686.464 41.2796H694.724ZM648.878 61.5063V18.5761H636.9V11.1459H670.355V18.5761H658.378V61.5063H648.878V61.5063ZM599.314 61.5063V11.1459H627.813V18.5761H608.814V30.9598H625.335V38.3901H608.814V54.4889H627.813V61.9191H599.314V61.5063ZM564.619 48.7098L558.424 23.5296V61.5063H550.163V11.1459H562.554L569.163 39.2157L576.184 11.1459H588.162V61.5063H579.902V23.1168L573.706 49.1226H564.619V48.7098ZM480.774 61.5063V11.1459H510.099V18.5761H490.274V35.0877H506.795V42.518H490.274V61.9191H480.774V61.5063ZM452.688 54.9017C455.166 54.9017 457.231 54.0761 458.057 52.8378C458.883 51.1866 459.709 48.7098 459.709 44.9947V28.0703C459.709 24.3552 459.296 21.8785 458.057 20.2273C457.231 18.5761 455.166 18.1633 452.688 18.1633C450.21 18.1633 448.144 18.9889 447.318 20.2273C446.492 21.8785 445.666 24.3552 445.666 28.0703V44.9947C445.666 48.7098 446.079 51.1866 447.318 52.8378C448.557 54.0761 450.21 54.9017 452.688 54.9017ZM452.688 62.3319C447.318 62.3319 443.188 60.6808 440.297 57.7912C437.406 54.9017 436.166 50.7738 436.166 45.4075V27.2447C436.166 21.8785 437.406 17.7506 440.297 14.861C443.188 11.9715 447.318 10.3203 452.688 10.3203C458.057 10.3203 462.187 11.9715 465.079 14.861C467.97 17.7506 469.209 21.8785 469.209 27.2447V45.4075C469.209 50.7738 467.97 54.9017 465.079 57.7912C462.187 60.6808 458.057 62.3319 452.688 62.3319ZM366.777 61.5063V11.1459H395.277V18.5761H376.277V30.9598H392.798V38.3901H376.277V54.4889H395.277V61.9191H366.777V61.5063ZM331.67 54.0761H337.865C340.756 54.0761 342.821 53.2506 344.06 52.0122C345.3 50.361 345.713 47.8843 345.713 44.1692V28.8959C345.713 25.1808 345.3 22.2913 344.06 21.0529C342.821 19.4017 340.756 18.5761 337.865 18.5761H331.67V54.4889V54.0761ZM322.17 61.5063V11.1459H339.104C344.474 11.1459 348.191 12.7971 351.082 15.6866C353.973 18.5761 355.625 22.704 355.625 28.0703V44.5819C355.625 49.5354 353.973 53.6633 351.082 56.9657C348.191 59.8552 344.061 61.5063 339.104 61.5063H322.583H322.17ZM282.106 61.5063V54.0761H291.606V18.1633H282.106V10.7331H310.605V18.1633H301.105V54.0761H310.605V61.5063H282.106ZM254.02 61.9191C251.541 61.9191 248.65 61.5064 245.759 60.6808C242.868 59.8552 240.39 58.6168 237.911 56.9657L239.564 49.5354C242.042 51.1866 244.52 52.425 246.998 53.2505C249.476 54.0761 251.955 54.4889 254.433 54.4889C256.911 54.4889 258.15 54.0761 259.389 52.8378C260.628 51.5994 261.041 49.9482 261.041 47.8843C261.041 45.8203 260.215 44.5819 258.976 43.3436C257.737 42.1052 255.259 41.2796 251.954 40.0413C246.998 38.3901 243.694 36.7389 241.216 34.675C238.737 32.611 237.498 29.3087 237.498 25.5936C237.498 21.8785 238.737 17.3378 241.629 14.861C244.52 11.9715 248.237 10.7331 253.194 10.7331C258.15 10.7331 258.563 11.1459 261.454 11.9715C263.932 12.7971 266.411 14.0354 268.063 15.2738L266.824 22.2912C264.758 20.6401 262.28 19.8145 260.215 18.9889C258.15 18.1634 255.672 17.7506 254.02 17.7506C252.368 17.7506 250.302 18.1634 249.063 19.4017C247.824 20.6401 247.411 21.8785 247.411 23.9424C247.411 26.0064 247.824 27.2447 249.063 28.4831C250.302 29.3087 252.781 30.5471 256.498 31.7854C261.454 33.4366 265.172 35.5006 267.237 37.5645C269.715 39.6285 270.541 42.9308 270.541 46.6459C270.541 50.361 268.889 54.9017 265.998 57.7912C263.106 60.6808 258.976 61.9191 253.194 61.9191H254.02ZM178.022 38.8029V61.5063H168.522V11.1459H178.022V31.3727H180.087L190.413 11.1459H201.152L187.522 34.2622L200.739 61.5063H189.587L180.087 38.8029H178.022V38.8029ZM133.414 61.5063H123.915V11.1459H142.501C147.044 11.1459 150.349 12.3843 152.827 14.4482C155.305 16.5122 156.544 20.2273 156.544 24.3552V28.4831C156.544 32.1982 155.718 35.0877 154.479 37.1517C153.24 39.2157 151.175 40.8668 148.284 41.6924L157.783 61.0936H146.631L137.545 42.518H133.827V61.0936L133.414 61.5063ZM133.414 35.5006H141.262C142.914 35.5006 144.153 35.0878 144.979 33.8494C145.805 32.611 146.218 30.9598 146.218 28.4831V24.768C146.218 22.2912 145.805 20.6401 144.979 19.8145C144.153 18.9889 142.914 18.5761 141.262 18.5761H133.414V35.9133V35.5006ZM106.154 61.5063L103.676 48.2971H92.5242L90.046 61.5063H80.9594L92.1112 11.1459H104.915L116.067 61.5063H106.154ZM102.024 41.2796L97.8937 19.8145L93.7634 41.2796H102.024ZM49.1559 54.4889H55.3514C58.2426 54.4889 60.3078 53.6633 61.5469 52.425C62.786 50.7738 63.199 48.2971 63.199 44.5819V29.3087C63.199 25.5936 62.786 22.704 61.5469 21.4657C60.3078 19.8145 58.2426 18.9889 55.3514 18.9889H49.1559V54.9017V54.4889ZM39.6562 61.9191V11.5587H56.5906C61.96 11.5587 65.6772 13.2099 68.5685 16.0994C71.4597 18.9889 73.1118 23.1168 73.1118 28.4831V44.9947C73.1118 49.9482 71.4597 54.0761 68.5685 57.3784C65.6772 60.268 61.547 61.9191 56.5906 61.9191H40.0693H39.6562Z" fill="black"/>
<path d="M13.63 71V63.5698H6.60853V7.43024H13.63V0H0V71H13.63V71ZM949.147 71V0H935.517V7.43024H942.538V63.5698H935.517V71H949.147V71Z" fill="black"/>
</svg>
