<svg width="254" height="196" viewBox="0 0 254 196" fill="none" xmlns="http://www.w3.org/2000/svg">
<path d="M2.49 -1.3113e-06V88H37.69C42.09 88 45.83 86.46 48.91 83.38C51.99 80.3 53.53 76.56 53.53 72.16V15.18C53.53 10.89 51.99 7.26 48.91 4.39999C45.94 1.42999 42.2 -1.3113e-06 37.69 -1.3113e-06H2.49ZM20.09 71.61V16.39H34.39C35.38 16.39 35.93 16.94 35.93 18.04V69.96C35.93 71.06 35.38 71.61 34.39 71.61H20.09ZM105.152 88H122.752L109.332 3.74C109.002 1.86999 106.802 -1.3113e-06 104.602 -1.3113e-06H78.5318C76.3318 -1.3113e-06 74.1318 1.86999 73.8018 3.74L60.4918 88H78.0918L80.4018 70.51H102.842L105.152 88ZM82.7118 52.91L87.1118 19.69C87.2218 18.26 87.6618 17.6 88.5418 17.6H94.7018C95.5818 17.6 96.0218 18.26 96.1318 19.69L100.532 52.91H82.7118ZM131.181 -1.3113e-06V88H148.781V50.82H163.631C164.621 51.7 165.171 53.35 165.171 55.88V88H182.771V55.22C182.771 49.17 178.921 44.11 173.531 42.02C178.481 39.82 182.001 34.65 182.001 29.04V13.2C182.001 9.56999 180.681 6.38 178.041 3.85C175.511 1.31999 172.431 -1.3113e-06 168.801 -1.3113e-06H131.181ZM148.781 33.22V16.06H163.191C163.961 16.06 164.291 16.61 164.291 17.71V29.26C164.291 31.24 163.741 32.56 162.531 33.22H148.781ZM194.131 -1.3113e-06V88H211.511V48.18H221.081L235.161 88H253.751L234.391 39.93V38.94L253.751 -1.3113e-06H235.161L221.081 30.69H211.511V-1.3113e-06H194.131ZM0.29 162.98V179.26C0.29 183.66 1.83 187.4 4.91 190.48C7.99 193.56 11.73 195.1 16.13 195.1H34.17C38.57 195.1 42.31 193.56 45.39 190.48C48.47 187.4 50.01 183.66 50.01 179.26V170.79C50.01 156.38 43.41 145.82 33.73 140.54C30.1 138.67 27.79 137.46 26.58 136.69C21.3 133.61 18.66 130.42 18.66 127.23V123.27C18.66 122.28 19.21 121.73 20.31 121.73H30.87C32.63 121.73 33.07 122.94 33.07 126.9H50.67C50.67 120.85 49.13 115.68 46.05 111.61C42.97 107.43 39.23 105.34 34.83 105.34H16.9C12.5 105.34 8.76 106.88 5.68 109.96C2.6 113.04 1.06 116.78 1.06 121.18V127.23C1.06 137.68 6.23 145.71 14.92 150.44C18 152.09 20.2 153.41 21.63 154.29C23.06 155.17 24.82 156.49 26.8 158.25C30.87 161.66 32.41 165.51 32.41 170.79V177.17C32.41 178.16 31.86 178.71 30.76 178.71H19.43C18.44 178.71 17.89 178.16 17.89 177.17V162.98H0.29ZM61.9046 106V194H79.5046V106H61.9046ZM92.9392 106V194H128.139C132.539 194 136.279 192.46 139.359 189.38C142.439 186.3 143.979 182.56 143.979 178.16V121.18C143.979 116.89 142.439 113.26 139.359 110.4C136.389 107.43 132.649 106 128.139 106H92.9392ZM110.539 177.61V122.39H124.839C125.829 122.39 126.379 122.94 126.379 124.04V175.96C126.379 177.06 125.829 177.61 124.839 177.61H110.539ZM155.781 106V194H200.221V176.4H173.381V157.59H197.251V139.99H173.381V123.6H200.221V106H155.781Z" fill="black"/>
</svg>
