<svg width="684" height="247" viewBox="0 0 684 247" fill="none" xmlns="http://www.w3.org/2000/svg">
<path d="M0 53.1838V68.2051C0 72.265 1.40807 75.7158 4.2242 78.5577C7.04033 81.3996 10.4599 82.8205 14.483 82.8205H30.9774C35.0005 82.8205 38.4201 81.3996 41.2362 78.5577C44.0523 75.7158 45.4604 72.265 45.4604 68.2051V60.39C45.4604 47.094 39.4258 37.3504 30.5751 32.4786C27.2561 30.7532 25.144 29.6368 24.0377 28.9263C19.21 26.0844 16.7962 23.141 16.7962 20.1976V16.5438C16.7962 15.6303 17.2991 15.1229 18.3048 15.1229H27.9601C29.5694 15.1229 29.9717 16.2393 29.9717 19.8932H46.0638C46.0638 14.3109 44.6558 9.5406 41.8396 5.78526C39.0235 1.92842 35.6039 0 31.5809 0H15.187C11.1639 0 7.74436 1.42094 4.92823 4.26282C2.1121 7.1047 0.704033 10.5556 0.704033 14.6154V20.1976C0.704033 29.8397 5.43111 37.2489 13.3766 41.6132C16.1927 43.1357 18.2043 44.3536 19.5118 45.1656C20.8192 45.9776 22.4285 47.1955 24.2388 48.8194C27.9602 51.9658 29.3682 55.5182 29.3682 60.39V66.2767C29.3682 67.1902 28.8653 67.6977 27.8596 67.6977H17.5002C16.5951 67.6977 16.0922 67.1902 16.0922 66.2767V53.1838H0Z" fill="black"/>
<path d="M57.4423 0.608979V81.8056H98.075V65.5662H73.5345V48.2105H95.3595V31.9712H73.5345V16.8483H98.075V0.608979H57.4423Z" fill="black"/>
<path d="M108.551 0.608979V81.8056H149.184V65.5662H124.644V48.2105H146.469V31.9712H124.644V16.8483H149.184V0.608979H108.551Z" fill="black"/>
<path d="M218.621 0.608979L210.977 43.2372C210.877 44.3536 210.575 44.9626 209.971 44.9626H203.535C203.032 44.9626 202.529 43.2372 202.529 43.2372L194.382 0.608979H177.888L190.761 56.0256C191.264 58.1571 193.175 59.2735 196.293 59.2735H198.606V81.8056H214.598V59.2735H217.213C220.029 59.2735 222.342 57.9541 222.845 56.0256L234.713 0.608979H218.621Z" fill="black"/>
<path d="M242.914 68.2051C242.914 72.265 244.322 75.7158 247.138 78.5577C249.954 81.3996 253.374 82.8205 257.397 82.8205H275.098C279.121 82.8205 282.541 81.3996 285.357 78.5577C288.173 75.7158 289.581 72.265 289.581 68.2051V14.6154C289.581 10.5556 288.173 7.1047 285.357 4.26282C282.541 1.42094 279.121 0 275.098 0H257.397C253.374 0 249.954 1.42094 247.138 4.26282C244.322 7.1047 242.914 10.5556 242.914 14.6154V68.2051ZM259.006 16.5438C259.006 15.6303 259.509 15.1229 260.414 15.1229H271.981C272.986 15.1229 273.489 15.6303 273.489 16.5438V66.2767C273.489 67.1902 272.986 67.6977 271.981 67.6977H260.414C259.509 67.6977 259.006 67.1902 259.006 66.2767V16.5438Z" fill="black"/>
<path d="M301.004 0.608979V68.2051C301.004 72.265 302.412 75.7158 305.228 78.5577C308.044 81.3996 311.464 82.8205 315.487 82.8205H333.188C337.211 82.8205 340.631 81.3996 343.447 78.5577C346.263 75.7158 347.671 72.265 347.671 68.2051V0.608979H331.579V65.7692C331.579 67.0887 331.076 67.6977 330.171 67.6977H318.504C317.599 67.6977 317.096 67.0887 317.096 65.7692V0.608979H301.004Z" fill="black"/>
<path d="M381.753 68.2051C381.753 72.265 383.161 75.7158 385.977 78.5577C388.793 81.3996 392.213 82.8205 396.236 82.8205H413.937C417.96 82.8205 421.38 81.3996 424.196 78.5577C427.012 75.7158 428.42 72.265 428.42 68.2051V14.6154C428.42 10.5556 427.012 7.1047 424.196 4.26282C421.38 1.42094 417.96 0 413.937 0H396.236C392.213 0 388.793 1.42094 385.977 4.26282C383.161 7.1047 381.753 10.5556 381.753 14.6154V68.2051ZM397.845 16.5438C397.845 15.6303 398.348 15.1229 399.253 15.1229H410.819C411.825 15.1229 412.328 15.6303 412.328 16.5438V66.2767C412.328 67.1902 411.825 67.6977 410.819 67.6977H399.253C398.348 67.6977 397.845 67.1902 397.845 66.2767V16.5438Z" fill="black"/>
<path d="M440.647 0.608979V81.8056H456.739L456.035 16.8483H456.941L466.596 81.8056H493.349V0.608979H477.257L477.961 65.5662H476.955L467.501 0.608979H440.647Z" fill="black"/>
<path d="M542.987 16.8483V81.8056H559.079V16.8483H575.272V0.608979H526.593V16.8483H542.987Z" fill="black"/>
<path d="M583.615 0.608979V81.8056H599.707V44.8611H613.888V81.8056H629.98V0.608979H613.888V28.9263H599.707V0.608979H583.615Z" fill="black"/>
<path d="M643.367 0.608979V81.8056H684V65.5662H659.459V48.2105H681.284V31.9712H659.459V16.8483H684V0.608979H643.367Z" fill="black"/>
<path d="M1.11719 108.851V244.696H55.546C62.3496 244.696 68.1326 242.319 72.8952 237.564C77.6577 232.81 80.0389 227.036 80.0389 220.244V132.284C80.0389 125.662 77.6577 120.058 72.8952 115.643C68.3027 111.058 62.5197 108.851 55.546 108.851H1.11719ZM28.3316 219.395V134.152H50.4433C51.9741 134.152 52.8245 135.001 52.8245 136.699V216.848C52.8245 218.546 51.9741 219.395 50.4433 219.395H28.3316Z" fill="black"/>
<path d="M152.206 244.696H179.421L158.67 114.624C158.159 111.738 154.758 108.851 151.356 108.851H111.044C107.643 108.851 104.241 111.738 103.731 114.624L83.1497 244.696H110.364L113.936 217.697H148.634L152.206 244.696ZM117.508 190.528L124.311 139.246C124.482 137.039 125.162 136.02 126.523 136.02H136.048C137.408 136.02 138.089 137.039 138.259 139.246L145.062 190.528H117.508Z" fill="black"/>
<path d="M184.801 108.851V244.696H212.015V187.302H234.978C236.508 188.66 237.359 191.207 237.359 195.113V244.696H264.573V194.094C264.573 184.755 258.62 176.943 250.286 173.717C257.94 170.321 263.383 162.34 263.383 153.68V129.228C263.383 123.624 261.342 118.7 257.259 114.794C253.347 110.889 248.585 108.851 242.972 108.851H184.801ZM212.015 160.133V133.643H234.297C235.488 133.643 235.998 134.492 235.998 136.19V154.019C235.998 157.076 235.148 159.114 233.277 160.133H212.015Z" fill="black"/>
<path d="M274.484 108.851V244.696H301.358V183.226H316.156L337.927 244.696H366.672L336.737 170.491V168.963L366.672 108.851H337.927L316.156 156.227H301.358V108.851H274.484Z" fill="black"/>
<path d="M397.128 196.811V221.942C397.128 228.735 399.509 234.508 404.272 239.263C409.034 244.017 414.817 246.394 421.621 246.394H449.516C456.319 246.394 462.102 244.017 466.865 239.263C471.627 234.508 474.008 228.735 474.008 221.942V208.867C474.008 186.622 463.803 170.321 448.835 162.17C443.222 159.284 439.65 157.416 437.779 156.227C429.615 151.472 425.533 146.548 425.533 141.624V135.511C425.533 133.982 426.383 133.133 428.084 133.133H444.413C447.134 133.133 447.815 135.001 447.815 141.114H475.029C475.029 131.775 472.648 123.794 467.885 117.511C463.123 111.058 457.34 107.832 450.536 107.832H422.811C416.008 107.832 410.225 110.209 405.462 114.964C400.7 119.719 398.318 125.492 398.318 132.284V141.624C398.318 157.755 406.313 170.151 419.75 177.453C424.512 180 427.914 182.038 430.125 183.396C432.336 184.755 435.058 186.792 438.12 189.509C444.413 194.773 446.794 200.716 446.794 208.867V218.716C446.794 220.244 445.944 221.093 444.243 221.093H426.723C425.193 221.093 424.342 220.244 424.342 218.716V196.811H397.128Z" fill="black"/>
<path d="M484.747 108.851V244.696H511.961V108.851H484.747Z" fill="black"/>
<path d="M525.081 108.851V244.696H579.509C586.313 244.696 592.096 242.319 596.859 237.564C601.621 232.81 604.002 227.036 604.002 220.244V132.284C604.002 125.662 601.621 120.058 596.859 115.643C592.266 111.058 586.483 108.851 579.509 108.851H525.081ZM552.295 219.395V134.152H574.407C575.938 134.152 576.788 135.001 576.788 136.699V216.848C576.788 218.546 575.938 219.395 574.407 219.395H552.295Z" fill="black"/>
<path d="M614.597 108.851V244.696H683.313V217.527H641.811V188.49H678.721V161.321H641.811V136.02H683.313V108.851H614.597Z" fill="black"/>
</svg>
