<svg width="515" height="418" viewBox="0 0 515 418" fill="none" xmlns="http://www.w3.org/2000/svg">
<path d="M171.376 35.032C171.376 39.192 168.048 42.52 163.888 42.52H160.976C156.816 42.52 153.488 39.192 153.488 35.032V27.336H158.168V35.032C158.168 36.696 159.312 37.84 160.976 37.84H163.888C165.552 37.84 166.696 36.696 166.696 35.032V31.028C166.696 24.788 163.524 22.916 159.364 20.42C155.724 18.236 153.488 14.856 153.488 10.436V7.576C153.488 3.416 156.816 0.0879972 160.976 0.0879972H163.888C168.048 0.0879972 171.376 3.416 171.376 7.576H166.696C166.696 5.912 165.552 4.768 163.888 4.768H160.976C159.312 4.768 158.168 5.912 158.168 7.576V10.436C158.168 14.336 160.872 15.844 164.512 18.028C168.464 20.42 171.376 24.268 171.376 31.028V35.032ZM182.015 5.08V16.728H190.907V21.408H182.015V37.32H192.311V42H177.335V0.399999H192.311V5.08H182.015ZM201.668 5.08V16.728H210.56V21.408H201.668V37.32H211.964V42H196.988V0.399999H211.964V5.08H201.668ZM159.658 72.4H164.338L157.63 100.792C157.422 101.624 156.486 102.56 155.394 102.56V114H150.766V102.56C149.674 102.56 148.686 101.676 148.53 100.792L141.614 72.4H146.398L152.482 97.204C152.482 97.204 152.586 97.88 153.002 97.88H153.158C153.574 97.88 153.626 97.412 153.678 97.204L159.658 72.4ZM181.135 79.576C181.135 77.912 179.991 76.768 178.327 76.768H175.207C173.543 76.768 172.399 77.912 172.399 79.576V107.032C172.399 108.696 173.543 109.84 175.207 109.84H178.327C179.991 109.84 181.135 108.696 181.135 107.032V79.576ZM185.815 107.032C185.815 111.192 182.487 114.52 178.327 114.52H175.207C171.047 114.52 167.719 111.192 167.719 107.032V79.576C167.719 75.416 171.047 72.088 175.207 72.088H178.327C182.487 72.088 185.815 75.416 185.815 79.576V107.032ZM205.212 72.4H209.892V107.032C209.892 111.192 206.564 114.52 202.404 114.52H199.284C195.124 114.52 191.796 111.192 191.796 107.032V72.4H196.476V107.032C196.476 108.696 197.62 109.84 199.284 109.84H202.404C204.068 109.84 205.212 108.696 205.212 107.032V72.4ZM103.085 151.576C103.085 149.912 101.941 148.768 100.277 148.768H97.1566C95.4926 148.768 94.3486 149.912 94.3486 151.576V179.032C94.3486 180.696 95.4926 181.84 97.1566 181.84H100.277C101.941 181.84 103.085 180.696 103.085 179.032V151.576ZM107.765 179.032C107.765 183.192 104.437 186.52 100.277 186.52H97.1566C92.9966 186.52 89.6686 183.192 89.6686 179.032V151.576C89.6686 147.416 92.9966 144.088 97.1566 144.088H100.277C104.437 144.088 107.765 147.416 107.765 151.576V179.032ZM126.589 186L119.205 149.08H118.945V186H114.265V144.4H122.585L129.865 181.32H130.125V144.4H134.805V186H126.589ZM160.823 149.08V186H156.143V149.08H148.863V144.4H168.103V149.08H160.823ZM189.689 144.4V186H185.009V165.356H176.429V186H171.749V144.4H176.429V160.728H185.009V144.4H189.689ZM201.668 149.08V160.728H210.56V165.408H201.668V181.32H211.964V186H196.988V144.4H211.964V149.08H201.668Z" fill="white"/>
<path d="M286.664 229.2V306H317.384C321.224 306 324.488 304.656 327.176 301.968C329.864 299.28 331.208 296.016 331.208 292.176V242.448C331.208 238.704 329.864 235.536 327.176 233.04C324.584 230.448 321.32 229.2 317.384 229.2H286.664ZM302.024 291.696V243.504H314.504C315.368 243.504 315.848 243.984 315.848 244.944V290.256C315.848 291.216 315.368 291.696 314.504 291.696H302.024ZM376.26 306H391.62L379.908 232.464C379.62 230.832 377.7 229.2 375.78 229.2H353.028C351.108 229.2 349.188 230.832 348.9 232.464L337.284 306H352.644L354.66 290.736H374.244L376.26 306ZM356.676 275.376L360.516 246.384C360.612 245.136 360.996 244.56 361.764 244.56H367.14C367.908 244.56 368.292 245.136 368.388 246.384L372.228 275.376H356.676ZM398.977 229.2V306H414.337V273.552H427.297C428.161 274.32 428.641 275.76 428.641 277.968V306H444V277.392C444 272.112 440.641 267.696 435.937 265.872C440.257 263.952 443.329 259.44 443.329 254.544V240.72C443.329 237.552 442.177 234.768 439.873 232.56C437.665 230.352 434.977 229.2 431.809 229.2H398.977ZM414.337 258.192V243.216H426.913C427.585 243.216 427.873 243.696 427.873 244.656V254.736C427.873 256.464 427.393 257.616 426.337 258.192H414.337ZM453.914 229.2V306H469.082V271.248H477.434L489.722 306H505.946L489.05 264.048V263.184L505.946 229.2H489.722L477.434 255.984H469.082V229.2H453.914ZM284.744 374.928V389.136C284.744 392.976 286.088 396.24 288.776 398.928C291.464 401.616 294.728 402.96 298.568 402.96H314.312C318.152 402.96 321.416 401.616 324.104 398.928C326.792 396.24 328.136 392.976 328.136 389.136V381.744C328.136 369.168 322.376 359.952 313.928 355.344C310.76 353.712 308.744 352.656 307.688 351.984C303.08 349.296 300.776 346.512 300.776 343.728V340.272C300.776 339.408 301.256 338.928 302.216 338.928H311.432C312.968 338.928 313.352 339.984 313.352 343.44H328.712C328.712 338.16 327.368 333.648 324.68 330.096C321.992 326.448 318.728 324.624 314.888 324.624H299.24C295.4 324.624 292.136 325.968 289.448 328.656C286.76 331.344 285.416 334.608 285.416 338.448V343.728C285.416 352.848 289.928 359.856 297.512 363.984C300.2 365.424 302.12 366.576 303.368 367.344C304.616 368.112 306.152 369.264 307.88 370.8C311.432 373.776 312.776 377.136 312.776 381.744V387.312C312.776 388.176 312.296 388.656 311.336 388.656H301.448C300.584 388.656 300.104 388.176 300.104 387.312V374.928H284.744ZM338.517 325.2V402H353.877V325.2H338.517ZM365.602 325.2V402H396.322C400.162 402 403.426 400.656 406.114 397.968C408.802 395.28 410.146 392.016 410.146 388.176V338.448C410.146 334.704 408.802 331.536 406.114 329.04C403.522 326.448 400.258 325.2 396.322 325.2H365.602ZM380.962 387.696V339.504H393.442C394.306 339.504 394.786 339.984 394.786 340.944V386.256C394.786 387.216 394.306 387.696 393.442 387.696H380.962ZM420.445 325.2V402H459.229V386.64H435.805V370.224H456.637V354.864H435.805V340.56H459.229V325.2H420.445Z" fill="white"/>
<path d="M242.7 406.4V5.4L243.2 4.9H250.6L251.1 5.4V406.4L250.6 406.9H243.2L242.7 406.4ZM234.7 1L234 1.7V410.1L234.7 410.8H259.1L259.8 410.1V1.7L259.1 1H234.7Z" fill="white"/>
</svg>
