<svg width="130" height="192" viewBox="0 0 130 192" fill="none" xmlns="http://www.w3.org/2000/svg">
<path d="M86.9751 37.63C86.9751 42.03 83.4551 45.55 79.0551 45.55H75.9751C71.5751 45.55 68.0551 42.03 68.0551 37.63V29.49H73.0051V37.63C73.0051 39.39 74.2151 40.6 75.9751 40.6H79.0551C80.8151 40.6 82.0251 39.39 82.0251 37.63V33.395C82.0251 26.795 78.6701 24.815 74.2701 22.175C70.4201 19.865 68.0551 16.29 68.0551 11.615V8.59C68.0551 4.19 71.5751 0.669997 75.9751 0.669997H79.0551C83.4551 0.669997 86.9751 4.19 86.9751 8.59H82.0251C82.0251 6.83 80.8151 5.62 79.0551 5.62H75.9751C74.2151 5.62 73.0051 6.83 73.0051 8.59V11.615C73.0051 15.74 75.8651 17.335 79.7151 19.645C83.8951 22.175 86.9751 26.245 86.9751 33.395V37.63ZM98.2277 5.95V18.27H107.633V23.22H98.2277V40.05H109.118V45H93.2777V0.999999H109.118V5.95H98.2277ZM119.014 5.95V18.27H128.419V23.22H119.014V40.05H129.904V45H114.064V0.999999H129.904V5.95H119.014ZM74.5803 74H79.5303L72.4353 104.03C72.2153 104.91 71.2253 105.9 70.0703 105.9V118H65.1753V105.9C64.0203 105.9 62.9753 104.965 62.8103 104.03L55.4953 74H60.5553L66.9903 100.235C66.9903 100.235 67.1003 100.95 67.5403 100.95H67.7053C68.1453 100.95 68.2003 100.455 68.2553 100.235L74.5803 74ZM97.297 81.59C97.297 79.83 96.087 78.62 94.327 78.62H91.027C89.267 78.62 88.057 79.83 88.057 81.59V110.63C88.057 112.39 89.267 113.6 91.027 113.6H94.327C96.087 113.6 97.297 112.39 97.297 110.63V81.59ZM102.247 110.63C102.247 115.03 98.727 118.55 94.327 118.55H91.027C86.627 118.55 83.107 115.03 83.107 110.63V81.59C83.107 77.19 86.627 73.67 91.027 73.67H94.327C98.727 73.67 102.247 77.19 102.247 81.59V110.63ZM122.762 74H127.712V110.63C127.712 115.03 124.192 118.55 119.792 118.55H116.492C112.092 118.55 108.572 115.03 108.572 110.63V74H113.522V110.63C113.522 112.39 114.732 113.6 116.492 113.6H119.792C121.552 113.6 122.762 112.39 122.762 110.63V74ZM14.7433 154.59C14.7433 152.83 13.5333 151.62 11.7733 151.62H8.47332C6.71332 151.62 5.50332 152.83 5.50332 154.59V183.63C5.50332 185.39 6.71332 186.6 8.47332 186.6H11.7733C13.5333 186.6 14.7433 185.39 14.7433 183.63V154.59ZM19.6933 183.63C19.6933 188.03 16.1733 191.55 11.7733 191.55H8.47332C4.07332 191.55 0.553321 188.03 0.553321 183.63V154.59C0.553321 150.19 4.07332 146.67 8.47332 146.67H11.7733C16.1733 146.67 19.6933 150.19 19.6933 154.59V183.63ZM39.6038 191L31.7938 151.95H31.5188V191H26.5688V147H35.3688L43.0688 186.05H43.3438V147H48.2938V191H39.6038ZM75.8131 151.95V191H70.8631V151.95H63.1631V147H83.5131V151.95H75.8131ZM106.345 147V191H101.395V169.165H92.3195V191H87.3695V147H92.3195V164.27H101.395V147H106.345ZM119.014 151.95V164.27H128.419V169.22H119.014V186.05H129.904V191H114.064V147H129.904V151.95H119.014Z" fill="black"/>
</svg>
