<?xml version="1.0" encoding="utf-8"?>
<!-- Generator: Adobe Illustrator 24.3.0, SVG Export Plug-In . SVG Version: 6.00 Build 0)  -->
<svg version="1.1" id="Layer_1" xmlns="http://www.w3.org/2000/svg" xmlns:xlink="http://www.w3.org/1999/xlink" x="0px" y="0px"
	 viewBox="0 0 283.46 283.46" style="enable-background:new 0 0 283.46 283.46;" xml:space="preserve">
<g>
	<path d="M187.63,105.51v0.44h0.86v1.65h0.56v-1.65h0.86v-0.44H187.63z M192.4,105.51l-0.56,1.55l-0.6-1.55h-0.83v2.09h0.56v-1.51
		l0.6,1.51h0.53l0.56-1.48v1.48h0.56v-2.09H192.4z"/>
</g>
<g>
	<path d="M171.12,79.26l0.72,0.71v123.52l-0.72,0.72h-8.77h-4.92v-1.9l4.92-2.32v-27.47h-4.92v-1.89l4.92-2.32v-53.15l-4.92-2.32
		v-1.9h4.92V83.28l-4.92-2.13v-1.89h4.92H171.12z"/>
	<path d="M137.55,236.54V46.91l0.48-0.48h7.42l0.48,0.48v189.63l-0.48,0.48h-7.42L137.55,236.54z M129.53,42.52l-0.71,0.72v196.99
		l0.72,0.72h24.39l0.71-0.72V43.24l-0.71-0.72H129.53z"/>
	<path d="M184.86,171.8v-60.14l-0.72-0.72h-6.12h-3.41v1.9l3.41,1.33v54.43l-3.41,2.01v1.9h3.41h6.12L184.86,171.8z"/>
	<path d="M112.34,79.26l-0.71,0.71v123.52l0.71,0.72h8.77h4.93v-1.9l-4.93-2.32v-27.47h4.93v-1.89l-4.93-2.32v-53.15l4.93-2.32v-1.9
		h-4.93V83.28l4.93-2.13v-1.89h-4.93H112.34z"/>
	<path d="M98.61,171.8v-4.61v-55.53l0.71-0.72h6.12h3.42v1.9l-3.42,1.33v54.43l3.42,2.01v1.9h-3.42h-6.12L98.61,171.8z"/>
</g>
</svg>
